<svg width="18" height="21" viewBox="0 0 18 21" fill="none" xmlns="http://www.w3.org/2000/svg">
<path d="M15 8.49639V16.9231C15 17.4739 14.8104 18.0022 14.4728 18.3917C14.1352 18.7812 13.6774 19 13.2 19H4.8C4.32261 19 3.86477 18.7812 3.52721 18.3917C3.18964 18.0022 3 17.4739 3 16.9231V3.07692C3 2.52609 3.18964 1.99782 3.52721 1.60832C3.86477 1.21882 4.32261 1 4.8 1H8.50313C8.82127 1.00006 9.12638 1.14589 9.35138 1.40543L14.6486 7.51764C14.8736 7.77725 15 8.1293 15 8.49639Z" stroke="#286E3A" stroke-linejoin="round"/>
<path d="M8.5625 1.19159V6.11346C8.5625 6.46156 8.67444 6.7954 8.8737 7.04154C9.07296 7.28768 9.34321 7.42596 9.625 7.42596H13.6094M5.90625 10.7072H11.2187M5.90625 13.9885H11.2187" stroke="#286E3A" stroke-linecap="round" stroke-linejoin="round"/>
</svg>
