<svg width="22" height="21" viewBox="0 0 22 21" fill="none" xmlns="http://www.w3.org/2000/svg">
<path fill-rule="evenodd" clip-rule="evenodd" d="M13.3126 19.25H7.31275C6.31812 19.25 5.36423 18.8549 4.66092 18.1516C3.95761 17.4483 3.5625 16.4944 3.5625 15.4997V5.50025C3.5625 4.50562 3.95761 3.55173 4.66092 2.84842C5.36423 2.14511 6.31812 1.75 7.31275 1.75H10.8198C11.5613 1.75017 12.2777 2.01941 12.8358 2.50775L16.0164 5.29025C16.3451 5.57773 16.6086 5.93219 16.7891 6.32985C16.9696 6.72751 17.0629 7.15917 17.0629 7.59587V15.4997C17.0629 15.9922 16.9659 16.4799 16.7774 16.9349C16.5889 17.3899 16.3127 17.8033 15.9645 18.1516C15.6162 18.4998 15.2028 18.7761 14.7478 18.9645C14.2928 19.153 13.8051 19.25 13.3126 19.25ZM13.3126 17.5H7.31275C7.05007 17.5 6.78997 17.4483 6.54729 17.3477C6.30461 17.2472 6.0841 17.0999 5.89836 16.9141C5.71262 16.7284 5.56528 16.5079 5.46476 16.2652C5.36424 16.0225 5.3125 15.7624 5.3125 15.4997V5.50025C5.3125 4.96975 5.52324 4.46098 5.89836 4.08586C6.27348 3.71074 6.78225 3.5 7.31275 3.5H10.8198C11.1374 3.50013 11.4443 3.61547 11.6834 3.82462L14.864 6.60712C15.005 6.73036 15.1181 6.88236 15.1955 7.0529C15.2729 7.22344 15.3129 7.40858 15.3129 7.59587V15.4997C15.3129 15.7624 15.2611 16.0225 15.1606 16.2652C15.0601 16.5079 14.9128 16.7284 14.727 16.9141C14.5413 17.0999 14.3208 17.2472 14.0781 17.3477C13.8354 17.4483 13.5753 17.5 13.3126 17.5Z" fill="#286E3A"/>
<path fill-rule="evenodd" clip-rule="evenodd" d="M11.4375 2.625C11.6696 2.625 11.8921 2.71719 12.0562 2.88128C12.2203 3.04538 12.3125 3.26794 12.3125 3.5V6.125C12.3125 6.35706 12.4047 6.57962 12.5688 6.74372C12.7329 6.90781 12.9554 7 13.1875 7H15.375C15.6071 7 15.8296 7.09219 15.9937 7.25628C16.1578 7.42038 16.25 7.64294 16.25 7.875C16.25 8.10706 16.1578 8.32962 15.9937 8.49372C15.8296 8.65781 15.6071 8.75 15.375 8.75H13.1875C12.4913 8.75 11.8236 8.47344 11.3313 7.98116C10.8391 7.48887 10.5625 6.82119 10.5625 6.125V3.5C10.5625 3.26794 10.6547 3.04538 10.8188 2.88128C10.9829 2.71719 11.2054 2.625 11.4375 2.625Z" fill="#286E3A"/>
<path d="M10.3857 9.39776C10.581 9.4503 10.7498 9.58144 10.9552 9.74025L11.0743 9.83249C11.1717 9.90749 11.195 9.92473 11.2182 9.93716C11.2432 9.95075 11.2696 9.96164 11.2969 9.96965C11.3221 9.97727 11.3506 9.98168 11.4725 9.99772L11.6221 10.0166C11.8796 10.0495 12.0913 10.0763 12.2666 10.177C12.4202 10.2652 12.5473 10.3923 12.6355 10.5459C12.7362 10.7208 12.7631 10.9329 12.7959 11.1904L12.8152 11.34C12.8308 11.4619 12.8352 11.4904 12.8429 11.5157C12.8509 11.5429 12.8616 11.5691 12.8749 11.5943C12.8878 11.6175 12.905 11.6408 12.98 11.7382L13.0723 11.8574C13.2311 12.0627 13.3622 12.2315 13.4148 12.4268C13.4607 12.5976 13.4607 12.7774 13.4148 12.9482C13.3622 13.1435 13.2311 13.3123 13.0723 13.5177L12.98 13.6368C12.905 13.7342 12.8878 13.7575 12.8754 13.7807C12.8617 13.8059 12.8509 13.8321 12.8429 13.8594C12.8352 13.8846 12.8308 13.9131 12.8148 14.035L12.7959 14.1846C12.7631 14.4421 12.7362 14.6538 12.6355 14.8291C12.5473 14.9825 12.42 15.1098 12.2666 15.198C12.0917 15.2987 11.8796 15.3256 11.6221 15.3584L11.4725 15.3777C11.3506 15.3933 11.3221 15.3977 11.2969 15.4054C11.2696 15.4134 11.2434 15.4241 11.2182 15.4374C11.195 15.4503 11.1717 15.4675 11.0743 15.5425L10.9552 15.6348C10.7498 15.7936 10.581 15.9247 10.3857 15.9773C10.2149 16.0232 10.0351 16.0232 9.86433 15.9773C9.66902 15.9247 9.50018 15.7936 9.29485 15.6348L9.17574 15.5425C9.07829 15.4675 9.05503 15.4503 9.03177 15.4379C9.00679 15.4243 8.98044 15.4134 8.95316 15.4054C8.9279 15.3977 8.89942 15.3933 8.77751 15.3773L8.62792 15.3584C8.37045 15.3256 8.1587 15.2987 7.98344 15.198C7.83005 15.1098 7.70275 14.9825 7.61449 14.8291C7.51382 14.6542 7.48695 14.4421 7.45407 14.1846L7.43482 14.035C7.41918 13.9131 7.41477 13.8846 7.40715 13.8594C7.39926 13.8321 7.38851 13.8057 7.37506 13.7807C7.36223 13.7575 7.34499 13.7342 7.26999 13.6368L7.17775 13.5177C7.01894 13.3123 6.8878 13.1435 6.83526 12.9482C6.78929 12.7774 6.78929 12.5976 6.83526 12.4268C6.8878 12.2315 7.01894 12.0627 7.17775 11.8574L7.26999 11.7382C7.34499 11.6408 7.36223 11.6175 7.37466 11.5943C7.38825 11.5693 7.39914 11.5429 7.40715 11.5157C7.41477 11.4904 7.41918 11.4619 7.43522 11.34L7.45407 11.1904C7.48695 10.9329 7.51382 10.7212 7.61449 10.5459C7.70275 10.3926 7.83005 10.2653 7.98344 10.177C8.1583 10.0763 8.37045 10.0495 8.62792 10.0166L8.77751 9.99732C8.89942 9.98168 8.9279 9.97727 8.95316 9.96965C8.98043 9.96176 9.00677 9.95101 9.03177 9.93756C9.05503 9.92473 9.07829 9.90749 9.17574 9.83249L9.29485 9.74025C9.50018 9.58144 9.66902 9.4503 9.86433 9.39776C10.0351 9.35179 10.2149 9.35179 10.3857 9.39776ZM11.6117 11.6019C11.5365 11.5267 11.4345 11.4845 11.3281 11.4845C11.2218 11.4845 11.1198 11.5267 11.0446 11.6019L9.72397 12.9225L9.20542 12.404C9.12978 12.3309 9.02848 12.2905 8.92333 12.2914C8.81817 12.2923 8.71759 12.3345 8.64323 12.4089C8.56887 12.4832 8.5267 12.5838 8.52578 12.689C8.52487 12.7941 8.56529 12.8954 8.63835 12.971L9.44043 13.7731C9.51564 13.8483 9.61762 13.8905 9.72397 13.8905C9.83031 13.8905 9.9323 13.8483 10.0075 13.7731L11.6117 12.169C11.6869 12.0938 11.7291 11.9918 11.7291 11.8854C11.7291 11.7791 11.6869 11.6771 11.6117 11.6019Z" fill="#FFCC00"/>
</svg>
