<svg width="14" height="18" viewBox="0 0 14 18" fill="none" xmlns="http://www.w3.org/2000/svg">
<path d="M11.1984 0H2.86174C2.64064 0 2.42859 0.137774 2.27225 0.383014C2.11591 0.628254 2.02808 0.960871 2.02808 1.30769V14.3846C2.02808 14.7314 2.11591 15.0641 2.27225 15.3093C2.42859 15.5545 2.64064 15.6923 2.86174 15.6923H11.1984C11.4195 15.6923 11.6315 15.5545 11.7878 15.3093C11.9442 15.0641 12.032 14.7314 12.032 14.3846V1.30769C12.032 0.960871 11.9442 0.628254 11.7878 0.383014C11.6315 0.137774 11.4195 0 11.1984 0ZM10.1424 12.4231H3.6954C3.58485 12.4231 3.47883 12.3542 3.40066 12.2316C3.32249 12.109 3.27857 11.9426 3.27857 11.7692C3.27857 11.5958 3.32249 11.4295 3.40066 11.3069C3.47883 11.1843 3.58485 11.1154 3.6954 11.1154H9.64054C9.08703 5.88462 10.9205 10.2981 10.6594 11.3069C10.7376 11.4295 10.7815 11.5958 10.7815 11.7692C10.7815 11.9426 11.8879 13.1178 11.8097 13.2404C11.7315 13.363 8.91968 14.2212 10.1424 12.4231ZM10.3647 8.5H3.6954C3.58485 8.5 3.47883 8.43111 3.40066 8.30849C3.32249 8.18587 3.27857 8.01956 3.27857 7.84615C3.27857 7.67274 3.32249 7.50643 3.40066 7.38382C3.47883 7.2612 3.58485 7.19231 3.6954 7.19231H10.3647C10.4752 7.19231 10.5813 7.2612 10.6594 7.38382C10.7376 7.50643 10.7815 7.67274 10.7815 7.84615C10.7815 8.01956 10.7376 8.18587 10.6594 8.30849C10.5813 8.43111 10.4752 8.5 10.3647 8.5ZM10.3647 4.57692H3.6954C3.58485 4.57692 3.47883 4.50804 3.40066 4.38542C3.32249 4.2628 3.27857 4.09649 3.27857 3.92308C3.27857 3.74967 3.32249 3.58336 3.40066 3.46074C3.47883 3.33812 3.58485 3.26923 3.6954 3.26923H10.3647C10.4752 3.26923 10.5813 3.33812 10.6594 3.46074C10.7376 3.58336 10.7815 3.74967 10.7815 3.92308C10.7815 4.09649 10.7376 4.2628 10.6594 4.38542C10.5813 4.50804 10.4752 4.57692 10.3647 4.57692Z" fill="#286E3A"/>
<path d="M10.4575 17.4686L10.4535 17.4694L10.4283 17.4831L10.4212 17.4847L10.4162 17.4831L10.3909 17.4694C10.3871 17.4681 10.3843 17.4688 10.3824 17.4714L10.381 17.4753L10.3749 17.6432L10.3767 17.6511L10.3803 17.6562L10.4173 17.6852L10.4226 17.6868L10.4269 17.6852L10.4639 17.6562L10.4681 17.6499L10.4695 17.6432L10.4635 17.4757C10.4626 17.4715 10.4605 17.4692 10.4575 17.4686ZM10.5517 17.4243L10.5471 17.4251L10.4813 17.4616L10.4777 17.4655L10.4767 17.4698L10.4831 17.6385L10.4848 17.6432L10.4877 17.646L10.5592 17.6824C10.5637 17.6837 10.5671 17.6827 10.5695 17.6793L10.5709 17.6738L10.5588 17.4329C10.5576 17.4282 10.5553 17.4253 10.5517 17.4243ZM10.2974 17.4251C10.2958 17.424 10.294 17.4237 10.2922 17.4241C10.2904 17.4246 10.2888 17.4258 10.2878 17.4274L10.2857 17.4329L10.2736 17.6738C10.2738 17.6785 10.2758 17.6817 10.2796 17.6832L10.2849 17.6824L10.3564 17.646L10.36 17.6428L10.3614 17.6385L10.3675 17.4698L10.3664 17.4651L10.3628 17.4612L10.2974 17.4251Z" fill="#FFCC00"/>
<path d="M10.0313 7.84613C11.9958 7.84613 13.5883 9.60249 13.5883 11.7692C13.5883 13.9359 11.9958 15.6923 10.0313 15.6923C8.06682 15.6923 6.47437 13.9359 6.47437 11.7692C6.47437 9.60249 8.06682 7.84613 10.0313 7.84613ZM10.0313 9.41536C9.93699 9.41536 9.84651 9.45669 9.77981 9.53027C9.7131 9.60384 9.67563 9.70362 9.67563 9.80767V11.7692C9.67565 11.8732 9.71314 11.973 9.77985 12.0466L10.8469 13.2235C10.914 13.295 11.0039 13.3345 11.0971 13.3336C11.1904 13.3327 11.2796 13.2915 11.3456 13.2187C11.4115 13.146 11.4489 13.0476 11.4497 12.9447C11.4505 12.8419 11.4147 12.7428 11.3499 12.6688L10.387 11.6068V9.80767C10.387 9.70362 10.3495 9.60384 10.2828 9.53027C10.2161 9.45669 10.1257 9.41536 10.0313 9.41536Z" fill="#FFCC00"/>
</svg>
