<svg width="17" height="18" viewBox="0 0 17 18" fill="none" xmlns="http://www.w3.org/2000/svg">
<path d="M5.96554 14.8567C7.20938 15.4997 7.83129 15.8205 8.49996 15.8205V8.84618L1.86854 5.40991L1.84021 5.45664C1.41663 6.16384 1.41663 7.0447 1.41663 8.80573V8.88733C1.41663 10.6477 1.41663 11.5285 1.8395 12.2357C2.26308 12.9436 3.02525 13.3377 4.54888 14.1251L5.96554 14.8567Z" fill="#286E3A"/>
<path opacity="0.7" d="M12.4503 3.56799L11.0337 2.83568C9.79053 2.19334 9.16861 1.87183 8.49995 1.87183C7.83057 1.87183 7.20936 2.19265 5.96553 2.83568L4.54886 3.56799C3.05853 4.33796 2.29636 4.73131 1.86853 5.40922L8.49995 8.84618L15.1314 5.40992C14.7021 4.73131 13.9414 4.33796 12.4503 3.56799Z" fill="#286E3A"/>
<path opacity="0.5" d="M15.1605 5.45664L15.1314 5.40991L8.5 8.84618V15.8205C9.16867 15.8205 9.79058 15.4997 11.0344 14.8567L12.4511 14.1244C13.9747 13.337 14.7369 12.9436 15.1605 12.2357C15.5833 11.5285 15.5833 10.6477 15.5833 8.88802V8.80642C15.5833 7.0454 15.5833 6.16384 15.1605 5.45664Z" fill="#286E3A"/>
<path d="M4.47884 3.60417L4.54967 3.56791L5.60721 3.02112L12.053 6.51179L14.9041 5.10924C15.0009 5.21711 15.0864 5.33289 15.1605 5.45656C15.2668 5.63371 15.3461 5.82202 15.4056 6.03195L12.573 7.42612V9.54354C12.573 9.68227 12.517 9.81531 12.4174 9.91341C12.3177 10.0115 12.1826 10.0666 12.0417 10.0666C11.9008 10.0666 11.7657 10.0115 11.6661 9.91341C11.5664 9.81531 11.5105 9.68227 11.5105 9.54354V7.9492L9.0313 9.16971V15.7535C8.85779 15.7978 8.67929 15.8203 8.50005 15.8205C8.32438 15.8205 8.15084 15.7981 7.9688 15.7535V9.16971L1.59521 6.03125C1.65471 5.82202 1.73405 5.63371 1.8403 5.45656C1.91396 5.33289 1.99944 5.21711 2.09671 5.10924L8.50005 8.26165L10.8992 7.08089L4.47884 3.60417Z" fill="white"/>
<path d="M7.01086 10.221L7.36828 9.16251C7.39575 9.08072 7.39802 8.99276 7.3748 8.9097C7.35158 8.82665 7.30391 8.75222 7.23779 8.6958C7.17168 8.63938 7.09009 8.60349 7.0033 8.59265C6.9165 8.58181 6.82839 8.59651 6.75007 8.6349L3.2393 10.3373L5.01601 13.7702C5.04192 13.8215 5.07787 13.8672 5.12179 13.9048C5.16571 13.9423 5.21674 13.9709 5.27195 13.989C5.32715 14.0071 5.38544 14.0142 5.44346 14.0101C5.50148 14.0059 5.55809 13.9904 5.61003 13.9646C5.715 13.9129 5.7948 13.8222 5.83186 13.7125L6.17951 12.6829C7.32528 13.0893 8.51812 13.7085 8.98313 15.4331L9.1228 15.0195C9.76992 13.1031 8.83174 11.0459 7.01086 10.221Z" fill="#FFCC00"/>
</svg>
