<svg width="15" height="19" viewBox="0 0 15 19" fill="none" xmlns="http://www.w3.org/2000/svg">
<path d="M11.543 0.476929H2.75391C2.52081 0.476929 2.29725 0.614703 2.13243 0.859943C1.9676 1.10518 1.875 1.4378 1.875 1.78462V14.8615C1.875 15.2084 1.9676 15.541 2.13243 15.7862C2.29725 16.0315 2.52081 16.1692 2.75391 16.1692H11.543C11.7761 16.1692 11.9996 16.0315 12.1644 15.7862C12.3293 15.541 12.4219 15.2084 12.4219 14.8615V1.78462C12.4219 1.4378 12.3293 1.10518 12.1644 0.859943C11.9996 0.614703 11.7761 0.476929 11.543 0.476929ZM10.4297 12.9H3.63281C3.51626 12.9 3.40449 12.8311 3.32207 12.7085C3.23966 12.5859 3.19336 12.4196 3.19336 12.2462C3.19336 12.0727 3.23966 11.9064 3.32207 11.7838C3.40449 11.6612 3.51626 11.5923 3.63281 11.5923H9.90061C9.31706 6.36154 11.25 10.775 10.9748 11.7838C11.0572 11.9064 11.1035 12.0727 11.1035 12.2462C11.1035 12.4196 12.2699 13.5947 12.1875 13.7173C12.1051 13.8399 9.14062 14.6981 10.4297 12.9ZM10.6641 8.97693H3.63281C3.51626 8.97693 3.40449 8.90804 3.32207 8.78542C3.23966 8.6628 3.19336 8.49649 3.19336 8.32308C3.19336 8.14967 3.23966 7.98336 3.32207 7.86074C3.40449 7.73812 3.51626 7.66924 3.63281 7.66924H10.6641C10.7806 7.66924 10.8924 7.73812 10.9748 7.86074C11.0572 7.98336 11.1035 8.14967 11.1035 8.32308C11.1035 8.49649 11.0572 8.6628 10.9748 8.78542C10.8924 8.90804 10.7806 8.97693 10.6641 8.97693ZM10.6641 5.05385H3.63281C3.51626 5.05385 3.40449 4.98496 3.32207 4.86234C3.23966 4.73972 3.19336 4.57342 3.19336 4.40001C3.19336 4.22659 3.23966 4.06029 3.32207 3.93767C3.40449 3.81505 3.51626 3.74616 3.63281 3.74616H10.6641C10.7806 3.74616 10.8924 3.81505 10.9748 3.93767C11.0572 4.06029 11.1035 4.22659 11.1035 4.40001C11.1035 4.57342 11.0572 4.73972 10.9748 4.86234C10.8924 4.98496 10.7806 5.05385 10.6641 5.05385Z" fill="#286E3A"/>
<path d="M10.7617 17.9457L10.7576 17.9465L10.731 17.9602L10.7235 17.9618L10.7182 17.9602L10.6916 17.9465C10.6876 17.9452 10.6846 17.9458 10.6826 17.9484L10.6811 17.9524L10.6747 18.1203L10.6766 18.1281L10.6804 18.1332L10.7194 18.1622L10.725 18.1638L10.7295 18.1622L10.7685 18.1332L10.773 18.1269L10.7745 18.1203L10.7681 17.9527C10.7671 17.9486 10.765 17.9462 10.7617 17.9457ZM10.8611 17.9014L10.8562 17.9021L10.7869 17.9386L10.7831 17.9425L10.782 17.9469L10.7887 18.1156L10.7906 18.1203L10.7936 18.123L10.869 18.1595C10.8737 18.1608 10.8774 18.1598 10.8799 18.1564L10.8814 18.1509L10.8686 17.91C10.8674 17.9053 10.8649 17.9024 10.8611 17.9014ZM10.593 17.9021C10.5913 17.9011 10.5894 17.9007 10.5875 17.9012C10.5856 17.9016 10.5839 17.9028 10.5829 17.9045L10.5806 17.91L10.5679 18.1509C10.5681 18.1556 10.5702 18.1587 10.5742 18.1603L10.5799 18.1595L10.6552 18.123L10.659 18.1199L10.6605 18.1156L10.6669 17.9469L10.6657 17.9422L10.662 17.9382L10.593 17.9021Z" fill="#FFCC00"/>
<path d="M10.3125 8.32312C12.3836 8.32312 14.0625 10.0795 14.0625 12.2462C14.0625 14.4129 12.3836 16.1693 10.3125 16.1693C8.24138 16.1693 6.5625 14.4129 6.5625 12.2462C6.5625 10.0795 8.24138 8.32312 10.3125 8.32312ZM10.3125 9.89235C10.213 9.89235 10.1177 9.93368 10.0473 10.0073C9.97701 10.0808 9.9375 10.1806 9.9375 10.2847V12.2462C9.93752 12.3502 9.97704 12.45 10.0474 12.5236L11.1724 13.7005C11.2431 13.7719 11.3378 13.8115 11.4362 13.8106C11.5345 13.8097 11.6285 13.7684 11.6981 13.6957C11.7676 13.623 11.807 13.5246 11.8079 13.4217C11.8087 13.3188 11.7709 13.2197 11.7026 13.1458L10.6875 12.0838V10.2847C10.6875 10.1806 10.648 10.0808 10.5777 10.0073C10.5073 9.93368 10.412 9.89235 10.3125 9.89235Z" fill="#FFCC00"/>
</svg>
