<svg width="24" height="24" viewBox="0 0 24 24" fill="none" xmlns="http://www.w3.org/2000/svg">
<g clip-path="url(#clip0_102_893)">
<path d="M15 2.97693H21V7.93841H19V4.96152H15V2.97693ZM9 2.97693V4.96152H5V7.93841H3V2.97693H9ZM15 20.8383V18.8537H19V15.8768H21V20.8383H15ZM9 20.8383H3V15.8768H5V18.8537H9V20.8383ZM3 10.9153H21V12.8999H3V10.9153Z" fill="#11163E"/>
<path d="M15 2.97693H21V7.93841H19V4.96152H15V2.97693ZM9 2.97693V4.96152H5V7.93841H3V2.97693H9ZM15 20.8383V18.8537H19V15.8768H21V20.8383H15ZM9 20.8383H3V15.8768H5V18.8537H9V20.8383ZM3 10.9153H21V12.8999H3V10.9153Z" fill="#11163E"/>
</g>
<g clip-path="url(#clip1_102_893)">
<path d="M2.97803 9.0008V3.00114H7.93883V5.00103H4.96235V9.0008H2.97803ZM2.97803 15.0005H4.96235V19.0002H7.93883V21.0001H2.97803V15.0005ZM20.8369 9.0008H18.8526V5.00103H15.8761V3.00114H20.8369V9.0008ZM20.8369 15.0005V21.0001H15.8761V19.0002H18.8526V15.0005H20.8369ZM10.9153 21.0001V3.00114H12.8996V21.0001H10.9153Z" fill="#11163E"/>
<path d="M2.97803 9.0008V3.00114H7.93883V5.00103H4.96235V9.0008H2.97803ZM2.97803 15.0005H4.96235V19.0002H7.93883V21.0001H2.97803V15.0005ZM20.8369 9.0008H18.8526V5.00103H15.8761V3.00114H20.8369V9.0008ZM20.8369 15.0005V21.0001H15.8761V19.0002H18.8526V15.0005H20.8369ZM10.9153 21.0001V3.00114H12.8996V21.0001H10.9153Z" fill="#11163E"/>
</g>
<defs>
<clipPath id="clip0_102_893">
<rect width="24" height="23.8151" fill="white"/>
</clipPath>
<clipPath id="clip1_102_893">
<rect width="23.9986" height="23.8118" fill="white" transform="matrix(0 -1 1 0 0.00146484 24)"/>
</clipPath>
</defs>
</svg>
