<svg width="25" height="24" viewBox="0 0 25 24" fill="none" xmlns="http://www.w3.org/2000/svg">
<g clip-path="url(#clip0_570_516)">
<path d="M6.17101 4.25701L13.914 12L12.5 13.414L6.18001 7.09401C5.0022 8.61297 4.41064 10.5052 4.51357 12.4246C4.6165 14.3439 5.40702 16.162 6.74052 17.5463C8.07402 18.9306 9.86134 19.7885 11.7755 19.9631C13.6897 20.1377 15.6027 19.6172 17.1646 18.497C18.7265 17.3768 19.8329 15.7317 20.2813 13.8626C20.7298 11.9935 20.4903 10.0255 19.6067 8.31853C18.7231 6.61157 17.2544 5.27979 15.4694 4.56685C13.6844 3.8539 11.7024 3.80746 9.886 4.43601L8.35001 2.90001C9.65259 2.30526 11.0681 1.99829 12.5 2.00001C18.023 2.00001 22.5 6.47701 22.5 12C22.5 17.523 18.023 22 12.5 22C6.97701 22 2.50001 17.523 2.50001 12C2.4985 10.5178 2.82718 9.05379 3.46217 7.71445C4.09716 6.37511 5.02251 5.19403 6.17101 4.25701Z" fill="#A1A1AA"/>
</g>
<defs>
<clipPath id="clip0_570_516">
<rect width="24" height="24" fill="white" transform="translate(0.5)"/>
</clipPath>
</defs>
</svg>
