<svg width="25" height="24" viewBox="0 0 25 24" fill="none" xmlns="http://www.w3.org/2000/svg">
<g clip-path="url(#clip0_570_522)">
<path d="M2.50001 12C2.50001 6.477 6.97701 2 12.5 2C18.023 2 22.5 6.477 22.5 12C22.5 17.523 18.023 22 12.5 22H2.50001L5.42901 19.071C4.49904 18.1434 3.76154 17.0413 3.25889 15.8278C2.75623 14.6143 2.49833 13.3135 2.50001 12ZM7.32801 20H12.5C14.0823 20 15.629 19.5308 16.9446 18.6518C18.2602 17.7727 19.2855 16.5233 19.891 15.0615C20.4965 13.5997 20.655 11.9911 20.3463 10.4393C20.0376 8.88743 19.2757 7.46197 18.1569 6.34315C17.038 5.22433 15.6126 4.4624 14.0607 4.15372C12.5089 3.84504 10.9003 4.00346 9.43854 4.60896C7.97673 5.21447 6.7273 6.23984 5.84825 7.55544C4.9692 8.87103 4.50001 10.4177 4.50001 12C4.50001 14.152 5.35101 16.165 6.84301 17.657L8.25701 19.071L7.32801 20ZM8.50001 13H16.5C16.5 14.0609 16.0786 15.0783 15.3284 15.8284C14.5783 16.5786 13.5609 17 12.5 17C11.4391 17 10.4217 16.5786 9.67158 15.8284C8.92144 15.0783 8.50001 14.0609 8.50001 13Z" fill="#A1A1AA"/>
</g>
<defs>
<clipPath id="clip0_570_522">
<rect width="24" height="24" fill="white" transform="translate(0.5)"/>
</clipPath>
</defs>
</svg>
