<svg width="17" height="21" viewBox="0 0 17 21" fill="none" xmlns="http://www.w3.org/2000/svg">
<path d="M15.7915 18.8333H1.20817C0.931903 18.8333 0.666952 18.9431 0.471601 19.1384C0.276251 19.3338 0.166504 19.5987 0.166504 19.875C0.166504 20.1512 0.276251 20.4162 0.471601 20.6115C0.666952 20.8069 0.931903 20.9166 1.20817 20.9166H15.7915C16.0678 20.9166 16.3327 20.8069 16.5281 20.6115C16.7234 20.4162 16.8332 20.1512 16.8332 19.875C16.8332 19.5987 16.7234 19.3338 16.5281 19.1384C16.3327 18.9431 16.0678 18.8333 15.7915 18.8333Z" fill="#11163E"/>
<path d="M1.20815 16.75H1.3019L5.64565 16.3542C6.12148 16.3068 6.56652 16.0971 6.90607 15.7604L16.2811 6.38541C16.6449 6.001 16.8416 5.48802 16.8279 4.95889C16.8143 4.42975 16.5914 3.92761 16.2082 3.56249L13.354 0.708328C12.9815 0.358428 12.4933 0.15766 11.9825 0.144215C11.4716 0.130771 10.9735 0.305588 10.5832 0.635411L1.20815 10.0104C0.871452 10.35 0.661804 10.795 0.614404 11.2708L0.166487 15.6146C0.152455 15.7672 0.172252 15.9209 0.224468 16.065C0.276683 16.209 0.360031 16.3398 0.468571 16.4479C0.565904 16.5445 0.681338 16.6208 0.808252 16.6727C0.935166 16.7245 1.07106 16.7508 1.20815 16.75ZM11.9061 2.16666L14.7498 5.01041L12.6665 7.04166L9.87482 4.24999L11.9061 2.16666ZM2.63524 11.4479L8.49982 5.625L11.3123 8.4375L5.47899 14.2708L2.35399 14.5625L2.63524 11.4479Z" fill="#11163E"/>
</svg>
