<svg width="17" height="21" viewBox="0 0 17 21" fill="none" xmlns="http://www.w3.org/2000/svg">
<path d="M16.5 21H14.5V19C14.5 18.2044 14.1839 17.4413 13.6213 16.8787C13.0587 16.3161 12.2956 16 11.5 16H5.5C4.70435 16 3.94129 16.3161 3.37868 16.8787C2.81607 17.4413 2.5 18.2044 2.5 19V21H0.5V19C0.5 17.6739 1.02678 16.4021 1.96447 15.4645C2.90215 14.5268 4.17392 14 5.5 14H11.5C12.8261 14 14.0979 14.5268 15.0355 15.4645C15.9732 16.4021 16.5 17.6739 16.5 19V21ZM8.5 12C7.71207 12 6.93185 11.8448 6.2039 11.5433C5.47595 11.2417 4.81451 10.7998 4.25736 10.2426C3.70021 9.68549 3.25825 9.02405 2.95672 8.2961C2.65519 7.56815 2.5 6.78793 2.5 6C2.5 5.21207 2.65519 4.43185 2.95672 3.7039C3.25825 2.97595 3.70021 2.31451 4.25736 1.75736C4.81451 1.20021 5.47595 0.758251 6.2039 0.456723C6.93185 0.155195 7.71207 -1.17411e-08 8.5 0C10.0913 2.37122e-08 11.6174 0.632141 12.7426 1.75736C13.8679 2.88258 14.5 4.4087 14.5 6C14.5 7.5913 13.8679 9.11742 12.7426 10.2426C11.6174 11.3679 10.0913 12 8.5 12ZM8.5 10C9.56087 10 10.5783 9.57857 11.3284 8.82843C12.0786 8.07828 12.5 7.06087 12.5 6C12.5 4.93913 12.0786 3.92172 11.3284 3.17157C10.5783 2.42143 9.56087 2 8.5 2C7.43913 2 6.42172 2.42143 5.67157 3.17157C4.92143 3.92172 4.5 4.93913 4.5 6C4.5 7.06087 4.92143 8.07828 5.67157 8.82843C6.42172 9.57857 7.43913 10 8.5 10Z" fill="#A1A1AA"/>
</svg>
