<svg width="20" height="20" viewBox="0 0 20 20" fill="none" xmlns="http://www.w3.org/2000/svg">
<path d="M19.25 11V6.5C19.25 5.17392 18.7232 3.90215 17.7855 2.96447C16.8479 2.02678 15.5761 1.5 14.25 1.5H5.75C4.42392 1.5 3.15215 2.02678 2.21447 2.96447C1.27678 3.90215 0.75 5.17392 0.75 6.5V13.5C0.75 14.1566 0.879329 14.8068 1.1306 15.4134C1.38188 16.02 1.75017 16.5712 2.21447 17.0355C3.15215 17.9732 4.42392 18.5 5.75 18.5H12.01" stroke="#71717A" stroke-width="1.5" stroke-linecap="round" stroke-linejoin="round"/>
<path d="M1.01001 15L3.75001 11.8C4.10985 11.4426 4.58212 11.2205 5.08689 11.1713C5.59166 11.1221 6.09793 11.2488 6.52001 11.53C6.94209 11.8112 7.44836 11.9379 7.95313 11.8887C8.4579 11.8395 8.93017 11.6174 9.29001 11.26L11.62 8.93001C12.2895 8.25824 13.1759 7.84621 14.121 7.76745C15.0662 7.68869 16.0086 7.94832 16.78 8.50001L19.25 10.41M6.01001 8.17001C6.228 8.16869 6.4436 8.12445 6.6445 8.03982C6.8454 7.95518 7.02766 7.83181 7.18088 7.67673C7.33409 7.52166 7.45527 7.33792 7.53748 7.13602C7.61969 6.93412 7.66132 6.718 7.66001 6.50001C7.6587 6.28201 7.61446 6.06641 7.52982 5.86551C7.44519 5.66461 7.32181 5.48235 7.16674 5.32914C7.01166 5.17592 6.82793 5.05475 6.62603 4.97254C6.42412 4.89033 6.208 4.84869 5.99001 4.85001C5.54975 4.85266 5.12858 5.03009 4.81914 5.34328C4.50971 5.65647 4.33736 6.07975 4.34001 6.52001C4.34266 6.96027 4.5201 7.38144 4.83328 7.69087C5.14647 8.00031 5.56975 8.17266 6.01001 8.17001Z" stroke="#71717A" stroke-width="1.5" stroke-linecap="round" stroke-linejoin="round"/>
<path d="M16.707 13V18" stroke="#71717A" stroke-width="1.5" stroke-miterlimit="10" stroke-linecap="round"/>
<path d="M18.9999 15.105L17.0329 13.138C16.9902 13.0951 16.9394 13.061 16.8835 13.0378C16.8275 13.0145 16.7675 13.0026 16.7069 13.0026C16.6464 13.0026 16.5864 13.0145 16.5304 13.0378C16.4745 13.061 16.4237 13.0951 16.3809 13.138L14.4139 15.105" stroke="#71717A" stroke-width="1.5" stroke-linecap="round" stroke-linejoin="round"/>
</svg>
