<svg width="34" height="34" viewBox="0 0 34 34" fill="none" xmlns="http://www.w3.org/2000/svg">
<path d="M7.43754 4.96728C6.78002 4.96728 6.14944 5.22848 5.6845 5.69342C5.21957 6.15835 4.95837 6.78894 4.95837 7.44645V11.6965C4.95837 11.9782 4.84643 12.2485 4.64717 12.4478C4.44792 12.647 4.17767 12.759 3.89587 12.759C3.61408 12.759 3.34383 12.647 3.14457 12.4478C2.94532 12.2485 2.83337 11.9782 2.83337 11.6965V7.44645C2.83337 6.22535 3.31845 5.05426 4.1819 4.19081C5.04535 3.32737 6.21644 2.84229 7.43754 2.84229H11.6875C11.9693 2.84229 12.2396 2.95423 12.4388 3.15348C12.6381 3.35274 12.75 3.62299 12.75 3.90478C12.75 4.18658 12.6381 4.45683 12.4388 4.65609C12.2396 4.85534 11.9693 4.96728 11.6875 4.96728H7.43754ZM7.43754 29.0506C6.78002 29.0506 6.14944 28.7894 5.6845 28.3245C5.21957 27.8595 4.95837 27.229 4.95837 26.5714V22.3214C4.95837 22.0397 4.84643 21.7694 4.64717 21.5701C4.44792 21.3709 4.17767 21.2589 3.89587 21.2589C3.61408 21.2589 3.34383 21.3709 3.14457 21.5701C2.94532 21.7694 2.83337 22.0397 2.83337 22.3214V26.5714C2.83337 27.1761 2.95246 27.7748 3.18385 28.3334C3.41523 28.892 3.75437 29.3995 4.1819 29.8271C4.60944 30.2546 5.117 30.5938 5.6756 30.8251C6.23421 31.0565 6.83291 31.1756 7.43754 31.1756H11.6875C11.9693 31.1756 12.2396 31.0637 12.4388 30.8644C12.6381 30.6652 12.75 30.3949 12.75 30.1131C12.75 29.8313 12.6381 29.5611 12.4388 29.3618C12.2396 29.1626 11.9693 29.0506 11.6875 29.0506H7.43754ZM29.0417 7.44645C29.0417 6.78894 28.7805 6.15835 28.3156 5.69342C27.8506 5.22848 27.2201 4.96728 26.5625 4.96728H22.3125C22.0307 4.96728 21.7605 4.85534 21.5612 4.65609C21.362 4.45683 21.25 4.18658 21.25 3.90478C21.25 3.62299 21.362 3.35274 21.5612 3.15348C21.7605 2.95423 22.0307 2.84229 22.3125 2.84229H26.5625C27.1672 2.84229 27.7659 2.96138 28.3245 3.19276C28.8831 3.42414 29.3906 3.76328 29.8182 4.19081C30.2457 4.61835 30.5849 5.12591 30.8162 5.68451C31.0476 6.24312 31.1667 6.84182 31.1667 7.44645V11.6965C31.1667 11.9782 31.0548 12.2485 30.8555 12.4478C30.6562 12.647 30.386 12.759 30.1042 12.759C29.8224 12.759 29.5522 12.647 29.3529 12.4478C29.1536 12.2485 29.0417 11.9782 29.0417 11.6965V7.44645ZM26.5625 29.0506C27.2201 29.0506 27.8506 28.7894 28.3156 28.3245C28.7805 27.8595 29.0417 27.229 29.0417 26.5714V22.3214C29.0417 22.0397 29.1536 21.7694 29.3529 21.5701C29.5522 21.3709 29.8224 21.2589 30.1042 21.2589C30.386 21.2589 30.6562 21.3709 30.8555 21.5701C31.0548 21.7694 31.1667 22.0397 31.1667 22.3214V26.5714C31.1667 27.1761 31.0476 27.7748 30.8162 28.3334C30.5849 28.892 30.2457 29.3995 29.8182 29.8271C29.3906 30.2546 28.8831 30.5938 28.3245 30.8251C27.7659 31.0565 27.1672 31.1756 26.5625 31.1756H22.3125C22.0307 31.1756 21.7605 31.0637 21.5612 30.8644C21.362 30.6652 21.25 30.3949 21.25 30.1131C21.25 29.8313 21.362 29.5611 21.5612 29.3618C21.7605 29.1626 22.0307 29.0506 22.3125 29.0506H26.5625ZM18.4167 17.0089C18.4167 17.3847 18.2674 17.745 18.0018 18.0107C17.7361 18.2764 17.3758 18.4256 17 18.4256C16.6243 18.4256 16.264 18.2764 15.9983 18.0107C15.7326 17.745 15.5834 17.3847 15.5834 17.0089C15.5834 16.6332 15.7326 16.2729 15.9983 16.0072C16.264 15.7415 16.6243 15.5923 17 15.5923C17.3758 15.5923 17.7361 15.7415 18.0018 16.0072C18.2674 16.2729 18.4167 16.6332 18.4167 17.0089ZM13.7842 10.8861C13.9338 10.5954 14.161 10.3518 14.4405 10.1823C14.7201 10.0127 15.0411 9.92391 15.368 9.92562H18.632C19.3021 9.92562 19.9155 10.2982 20.2159 10.8861L20.9072 12.759H21.7218C23.0251 12.759 24.0834 13.6033 24.0834 14.8839V20.3579C24.0834 21.6372 23.0265 22.6756 21.7218 22.6756H12.2783C10.975 22.6756 9.91671 21.6372 9.91671 20.3579V14.8839C9.91671 13.6033 10.9735 12.759 12.2783 12.759H13.0929L13.7842 10.8861ZM14.1667 17.0089C14.1667 17.7604 14.4652 18.4811 14.9966 19.0124C15.5279 19.5438 16.2486 19.8423 17 19.8423C17.7515 19.8423 18.4722 19.5438 19.0035 19.0124C19.5349 18.4811 19.8334 17.7604 19.8334 17.0089C19.8334 16.2575 19.5349 15.5368 19.0035 15.0055C18.4722 14.4741 17.7515 14.1756 17 14.1756C16.2486 14.1756 15.5279 14.4741 14.9966 15.0055C14.4652 15.5368 14.1667 16.2575 14.1667 17.0089Z" fill="black"/>
</svg>
