<svg width="31" height="91" viewBox="0 0 31 91" fill="none" xmlns="http://www.w3.org/2000/svg">
<path d="M15.5 14.292C11.6875 14.292 8.03117 15.7011 5.33534 18.2094C2.6395 20.7177 1.125 24.1197 1.125 27.667V87.4087C1.125 87.76 1.19936 88.1078 1.34385 88.4324C1.48833 88.7569 1.7001 89.0518 1.96707 89.3002C2.23403 89.5486 2.55097 89.7456 2.89979 89.8801C3.2486 90.0145 3.62245 90.0837 4 90.0837H27C27.3775 90.0837 27.7514 90.0145 28.1002 89.8801C28.449 89.7456 28.766 89.5486 29.0329 89.3002C29.2999 89.0518 29.5117 88.7569 29.6562 88.4324C29.8006 88.1078 29.875 87.76 29.875 87.4087V27.667C29.875 24.1197 28.3605 20.7177 25.6647 18.2094C22.9688 15.7011 19.3125 14.292 15.5 14.292ZM15.5 14.292V0.916992M1.125 41.042H29.875M15.5 0.916992H10.7083M15.5 0.916992H20.2917" stroke="#11163E" stroke-width="1.5" stroke-linecap="round"/>
</svg>
